<svg width="1000" height="1000" viewBox="0 0 1000 1000" fill="none" xmlns="http://www.w3.org/2000/svg">
<path d="M470.312 579.687C439.062 500.937 376.562 416.562 282.812 434.062C189.062 451.562 180.937 577.187 220.312 648.437C261.006 713.669 308.342 774.514 361.562 830C378.125 849.062 395.625 867.812 413.75 885.312C431.875 902.812 463.125 941.875 493.438 950.312C531.875 961.25 576.562 867.187 593.125 840.312C625.938 787.187 655.625 731.875 684.375 676.875C713.125 621.875 735.938 565.312 760.625 509.687C800 420.625 843.75 322.187 847.188 222.5C849.93 200.651 846.494 178.47 837.27 158.475C828.046 138.479 813.402 121.469 795 109.375C776.177 98.5755 755.152 92.1783 733.504 90.6629C711.855 89.1475 690.145 92.5533 670 100.625C624.063 119.375 597.188 165.625 576.25 208.125C551.053 261.909 530.154 317.604 513.75 374.687C495.386 442.139 480.883 510.584 470.312 579.687Z" fill="#361041"/>
<path d="M496.562 883.75C531.25 883.75 883.75 192.5 750 144.375C616.25 96.2502 521.25 659.688 491.25 667.5C461.25 675.313 366.25 426.25 275 500C183.75 573.75 460.938 883.75 496.562 883.75Z" fill="#F41870"/>
</svg>
